<svg xmlns="http://www.w3.org/2000/svg" width="76" height="52" viewBox="0 0 76 52">
  <g id="Mail_Icon" data-name="Mail Icon" transform="translate(0)">
    <path id="Mail_Icon-2" data-name="Mail Icon" d="M67.27,52H8.73A8.741,8.741,0,0,1,0,43.247V8.753a8.6,8.6,0,0,1,.9-3.86l37.316,28.7.024.044.017-.013.017.014.025-.046L75.241,5.179A8.705,8.705,0,0,1,76,8.753V43.247A8.741,8.741,0,0,1,67.27,52ZM38.256,26.374h0L5.027.815A8.753,8.753,0,0,1,8.73,0H67.27a8.735,8.735,0,0,1,4.008.975l-33.022,25.4Z" transform="translate(0)" fill="#fff"/>
  </g>
</svg>
